<svg width="1600" height="980" viewBox="0 0 1600 980" fill="none" xmlns="http://www.w3.org/2000/svg">
  <defs>
    <linearGradient id="bg" x1="0" y1="0" x2="1600" y2="980" gradientUnits="userSpaceOnUse">
      <stop stop-color="#0B1224"/>
      <stop offset="1" stop-color="#0A162F"/>
    </linearGradient>
    <linearGradient id="card" x1="0" y1="0" x2="600" y2="280" gradientUnits="userSpaceOnUse">
      <stop stop-color="#101D36"/>
      <stop offset="1" stop-color="#0F1A2F"/>
    </linearGradient>
    <linearGradient id="accent" x1="0" y1="0" x2="400" y2="0" gradientUnits="userSpaceOnUse">
      <stop stop-color="#2563EB"/>
      <stop offset="1" stop-color="#60A5FA"/>
    </linearGradient>
    <filter id="blur" x="-100" y="-100" width="1800" height="1180" filterUnits="userSpaceOnUse" color-interpolation-filters="sRGB">
      <feGaussianBlur stdDeviation="60"/>
    </filter>
  </defs>

  <rect width="1600" height="980" rx="26" fill="url(#bg)"/>
  <circle cx="240" cy="120" r="150" fill="#1D4ED8" fill-opacity="0.25" filter="url(#blur)"/>
  <circle cx="1320" cy="120" r="140" fill="#38BDF8" fill-opacity="0.18" filter="url(#blur)"/>

  <rect x="42" y="34" width="1516" height="66" rx="14" fill="#0D1A30" stroke="#1E2F4D"/>
  <text x="72" y="75" fill="#CFE3FF" font-family="Arial" font-size="22" font-weight="700">SmartData Legal · Intake Command Center</text>
  <rect x="1246" y="50" width="280" height="34" rx="8" fill="#0E2545" stroke="#2D4B73"/>
  <text x="1264" y="72" fill="#98B6DF" font-family="Arial" font-size="14">Owner: intake_admin · SLA: at_risk</text>

  <rect x="42" y="126" width="364" height="184" rx="16" fill="url(#card)" stroke="#274060"/>
  <text x="68" y="164" fill="#A8C4EA" font-family="Arial" font-size="14">HOT LEADS</text>
  <text x="68" y="230" fill="#F4FAFF" font-family="Arial" font-size="60" font-weight="700">18</text>
  <rect x="68" y="252" width="180" height="12" rx="6" fill="#1D4ED8"/>
  <rect x="68" y="252" width="142" height="12" rx="6" fill="#60A5FA"/>

  <rect x="424" y="126" width="364" height="184" rx="16" fill="url(#card)" stroke="#274060"/>
  <text x="450" y="164" fill="#A8C4EA" font-family="Arial" font-size="14">FIRST CONTACT MEDIAN</text>
  <text x="450" y="230" fill="#F4FAFF" font-family="Arial" font-size="60" font-weight="700">00:58</text>
  <text x="450" y="268" fill="#7FD89B" font-family="Arial" font-size="16">Under 60s target met</text>

  <rect x="806" y="126" width="752" height="184" rx="16" fill="url(#card)" stroke="#274060"/>
  <text x="832" y="164" fill="#A8C4EA" font-family="Arial" font-size="14">SLA RISK DISTRIBUTION</text>
  <rect x="832" y="194" width="680" height="18" rx="9" fill="#162845"/>
  <rect x="832" y="194" width="428" height="18" rx="9" fill="url(#accent)"/>
  <rect x="832" y="226" width="680" height="18" rx="9" fill="#162845"/>
  <rect x="832" y="226" width="218" height="18" rx="9" fill="#22C55E"/>
  <rect x="832" y="258" width="680" height="18" rx="9" fill="#162845"/>
  <rect x="832" y="258" width="118" height="18" rx="9" fill="#EF4444"/>

  <rect x="42" y="332" width="1030" height="606" rx="16" fill="#0E1C33" stroke="#274060"/>
  <text x="68" y="370" fill="#C3DBFF" font-family="Arial" font-size="16" font-weight="700">Priority Lead Queue</text>

  <rect x="68" y="392" width="978" height="56" rx="10" fill="#142844"/>
  <text x="90" y="427" fill="#EDF5FF" font-family="Arial" font-size="15">Name</text>
  <text x="390" y="427" fill="#EDF5FF" font-family="Arial" font-size="15">Case</text>
  <text x="620" y="427" fill="#EDF5FF" font-family="Arial" font-size="15">AI Score</text>
  <text x="760" y="427" fill="#EDF5FF" font-family="Arial" font-size="15">Status</text>
  <text x="888" y="427" fill="#EDF5FF" font-family="Arial" font-size="15">Owner</text>

  <g>
    <rect x="68" y="462" width="978" height="72" rx="10" fill="#10213A"/>
    <text x="90" y="505" fill="#F3F9FF" font-family="Arial" font-size="15">Marisol Rivera</text>
    <text x="390" y="505" fill="#A8C4EA" font-family="Arial" font-size="15">Auto collision</text>
    <rect x="620" y="482" width="88" height="32" rx="16" fill="#1D4ED8"/>
    <text x="653" y="503" fill="#EAF3FF" font-family="Arial" font-size="14" font-weight="700">91</text>
    <rect x="760" y="482" width="110" height="32" rx="16" fill="#EF4444" fill-opacity="0.2"/>
    <text x="788" y="503" fill="#FF9A9A" font-family="Arial" font-size="14">at_risk</text>
    <text x="888" y="505" fill="#C8DFFF" font-family="Arial" font-size="15">intake_admin</text>
  </g>

  <g>
    <rect x="68" y="542" width="978" height="72" rx="10" fill="#10213A"/>
    <text x="90" y="585" fill="#F3F9FF" font-family="Arial" font-size="15">Jose Martinez</text>
    <text x="390" y="585" fill="#A8C4EA" font-family="Arial" font-size="15">Slip and fall</text>
    <rect x="620" y="562" width="88" height="32" rx="16" fill="#2563EB"/>
    <text x="653" y="583" fill="#EAF3FF" font-family="Arial" font-size="14" font-weight="700">78</text>
    <rect x="760" y="562" width="110" height="32" rx="16" fill="#22C55E" fill-opacity="0.2"/>
    <text x="786" y="583" fill="#9FE7B6" font-family="Arial" font-size="14">new</text>
    <text x="888" y="585" fill="#C8DFFF" font-family="Arial" font-size="15">intake_admin</text>
  </g>

  <g>
    <rect x="68" y="622" width="978" height="72" rx="10" fill="#10213A"/>
    <text x="90" y="665" fill="#F3F9FF" font-family="Arial" font-size="15">Ana Delgado</text>
    <text x="390" y="665" fill="#A8C4EA" font-family="Arial" font-size="15">Civil rights</text>
    <rect x="620" y="642" width="88" height="32" rx="16" fill="#1D4ED8"/>
    <text x="653" y="663" fill="#EAF3FF" font-family="Arial" font-size="14" font-weight="700">84</text>
    <rect x="760" y="642" width="110" height="32" rx="16" fill="#22C55E" fill-opacity="0.2"/>
    <text x="774" y="663" fill="#9FE7B6" font-family="Arial" font-size="14">contacted</text>
    <text x="888" y="665" fill="#C8DFFF" font-family="Arial" font-size="15">intake_admin</text>
  </g>

  <rect x="1092" y="332" width="466" height="296" rx="16" fill="#0E1C33" stroke="#274060"/>
  <text x="1118" y="370" fill="#C3DBFF" font-family="Arial" font-size="16" font-weight="700">Activity Timeline</text>
  <circle cx="1126" cy="408" r="6" fill="#22C55E"/>
  <text x="1144" y="413" fill="#D7E8FF" font-family="Arial" font-size="14">Lead assigned to intake_admin</text>
  <circle cx="1126" cy="446" r="6" fill="#60A5FA"/>
  <text x="1144" y="451" fill="#D7E8FF" font-family="Arial" font-size="14">AI summary generated</text>
  <circle cx="1126" cy="484" r="6" fill="#EF4444"/>
  <text x="1144" y="489" fill="#D7E8FF" font-family="Arial" font-size="14">SLA at risk alert triggered</text>
  <circle cx="1126" cy="522" r="6" fill="#22C55E"/>
  <text x="1144" y="527" fill="#D7E8FF" font-family="Arial" font-size="14">Contact attempt logged</text>

  <rect x="1092" y="642" width="466" height="296" rx="16" fill="#0E1C33" stroke="#274060"/>
  <text x="1118" y="680" fill="#C3DBFF" font-family="Arial" font-size="16" font-weight="700">Document Console</text>
  <rect x="1118" y="702" width="414" height="60" rx="12" fill="#132744"/>
  <text x="1140" y="738" fill="#DCEBFF" font-family="Arial" font-size="14">PoliceReport-Case8821.pdf</text>
  <rect x="1118" y="772" width="414" height="60" rx="12" fill="#132744"/>
  <text x="1140" y="808" fill="#DCEBFF" font-family="Arial" font-size="14">MedicalSummary-Feb17.pdf</text>
  <rect x="1118" y="842" width="414" height="60" rx="12" fill="#132744"/>
  <text x="1140" y="878" fill="#DCEBFF" font-family="Arial" font-size="14">ScenePhotos-Upload.zip</text>
</svg>
