<svg width="1200" height="980" viewBox="0 0 1200 980" fill="none" xmlns="http://www.w3.org/2000/svg">
  <defs>
    <linearGradient id="bg" x1="0" y1="0" x2="1200" y2="980" gradientUnits="userSpaceOnUse">
      <stop stop-color="#0B1224"/>
      <stop offset="1" stop-color="#0D1E3A"/>
    </linearGradient>
    <linearGradient id="phone" x1="0" y1="0" x2="420" y2="780" gradientUnits="userSpaceOnUse">
      <stop stop-color="#111D34"/>
      <stop offset="1" stop-color="#0E1629"/>
    </linearGradient>
  </defs>

  <rect width="1200" height="980" rx="24" fill="url(#bg)"/>
  <rect x="54" y="62" width="1092" height="856" rx="20" fill="#0E1B32" stroke="#253E62"/>

  <rect x="120" y="120" width="420" height="740" rx="40" fill="url(#phone)" stroke="#304E76" stroke-width="2"/>
  <rect x="138" y="156" width="384" height="650" rx="26" fill="#0A1222"/>
  <rect x="248" y="138" width="160" height="10" rx="5" fill="#2A4366"/>

  <text x="164" y="198" fill="#E5F0FF" font-family="Arial" font-size="20" font-weight="700">Client Intake</text>
  <rect x="164" y="214" width="160" height="30" rx="15" fill="#1D4ED8"/>
  <text x="180" y="234" fill="#EAF3FF" font-family="Arial" font-size="12" font-weight="700">EN</text>
  <rect x="328" y="214" width="160" height="30" rx="15" fill="#123055"/>
  <text x="404" y="234" fill="#9CC1F0" font-family="Arial" font-size="12" font-weight="700">ES</text>

  <rect x="164" y="264" width="332" height="16" rx="8" fill="#253F62"/>
  <rect x="164" y="264" width="206" height="16" rx="8" fill="#60A5FA"/>
  <text x="164" y="301" fill="#A8C4EA" font-family="Arial" font-size="13">Step 3 of 7 · Incident details</text>

  <rect x="164" y="322" width="332" height="74" rx="12" fill="#10213A" stroke="#29486E"/>
  <text x="182" y="352" fill="#DDEBFF" font-family="Arial" font-size="13">Case type</text>
  <text x="182" y="374" fill="#F7FBFF" font-family="Arial" font-size="15" font-weight="700">Personal Injury</text>

  <rect x="164" y="408" width="332" height="170" rx="12" fill="#10213A" stroke="#29486E"/>
  <text x="182" y="438" fill="#DDEBFF" font-family="Arial" font-size="13">What happened?</text>
  <text x="182" y="462" fill="#A8C4EA" font-family="Arial" font-size="13">Client slipped in grocery aisle,</text>
  <text x="182" y="482" fill="#A8C4EA" font-family="Arial" font-size="13">fractured wrist, ER treatment,</text>
  <text x="182" y="502" fill="#A8C4EA" font-family="Arial" font-size="13">photos and witness available.</text>

  <rect x="164" y="592" width="332" height="56" rx="12" fill="#1D4ED8"/>
  <text x="304" y="626" text-anchor="middle" fill="#FFFFFF" font-family="Arial" font-size="15" font-weight="700">Continue</text>

  <rect x="594" y="120" width="522" height="352" rx="16" fill="#101F38" stroke="#264567"/>
  <text x="624" y="158" fill="#E8F2FF" font-family="Arial" font-size="19" font-weight="700">AI Triage Output</text>
  <rect x="624" y="182" width="150" height="36" rx="18" fill="#1D4ED8"/>
  <text x="699" y="205" text-anchor="middle" fill="#F1F7FF" font-family="Arial" font-size="13" font-weight="700">Hot · 89</text>
  <rect x="784" y="182" width="160" height="36" rx="18" fill="#22C55E" fill-opacity="0.22"/>
  <text x="864" y="205" text-anchor="middle" fill="#AEEFC5" font-family="Arial" font-size="13" font-weight="700">EN/ES ready</text>

  <rect x="624" y="236" width="462" height="78" rx="12" fill="#132845"/>
  <text x="646" y="268" fill="#DDEBFF" font-family="Arial" font-size="14">Summary:</text>
  <text x="646" y="290" fill="#A8C4EA" font-family="Arial" font-size="13">Slip-and-fall with documented injury and high evidence quality.</text>

  <rect x="624" y="324" width="462" height="124" rx="12" fill="#132845"/>
  <text x="646" y="354" fill="#DDEBFF" font-family="Arial" font-size="14">Risk flags</text>
  <circle cx="656" cy="376" r="5" fill="#22C55E"/>
  <text x="672" y="381" fill="#A8C4EA" font-family="Arial" font-size="13">Liability evidence appears strong</text>
  <circle cx="656" cy="400" r="5" fill="#F59E0B"/>
  <text x="672" y="405" fill="#A8C4EA" font-family="Arial" font-size="13">Medical billing docs pending</text>
  <circle cx="656" cy="424" r="5" fill="#EF4444"/>
  <text x="672" y="429" fill="#A8C4EA" font-family="Arial" font-size="13">Requires first contact inside SLA window</text>

  <rect x="594" y="492" width="522" height="368" rx="16" fill="#101F38" stroke="#264567"/>
  <text x="624" y="530" fill="#E8F2FF" font-family="Arial" font-size="19" font-weight="700">Lead Handoff Panel</text>

  <rect x="624" y="552" width="462" height="62" rx="10" fill="#132845"/>
  <text x="646" y="588" fill="#DDEBFF" font-family="Arial" font-size="14">Owner assigned: intake_admin</text>

  <rect x="624" y="622" width="462" height="62" rx="10" fill="#132845"/>
  <text x="646" y="658" fill="#DDEBFF" font-family="Arial" font-size="14">Next action: contact client via WhatsApp</text>

  <rect x="624" y="692" width="462" height="62" rx="10" fill="#132845"/>
  <text x="646" y="728" fill="#DDEBFF" font-family="Arial" font-size="14">Document request queued</text>

  <rect x="624" y="762" width="462" height="62" rx="10" fill="#132845"/>
  <text x="646" y="798" fill="#DDEBFF" font-family="Arial" font-size="14">Status pipeline: new → contacted</text>
</svg>
